<?xml version="1.0" encoding="UTF-8" standalone="no"?>
<!-- Uploaded to: SVG Repo, www.svgrepo.com, Generator: SVG Repo Mixer Tools -->

<svg
   fill="#000000"
   height="800px"
   width="800px"
   version="1.1"
   id="Layer_1"
   viewBox="0 0 512 512"
   xml:space="preserve"
   sodipodi:docname="privacy-sandstorm-logo-BW.svg"
   inkscape:version="1.2.2 (b0a8486541, 2022-12-01)"
   xmlns:inkscape="http://www.inkscape.org/namespaces/inkscape"
   xmlns:sodipodi="http://sodipodi.sourceforge.net/DTD/sodipodi-0.dtd"
   xmlns="http://www.w3.org/2000/svg"
   xmlns:svg="http://www.w3.org/2000/svg"><defs
   id="defs3020" /><sodipodi:namedview
   id="namedview3018"
   pagecolor="#ffffff"
   bordercolor="#666666"
   borderopacity="1.0"
   inkscape:showpageshadow="2"
   inkscape:pageopacity="0.0"
   inkscape:pagecheckerboard="0"
   inkscape:deskcolor="#d1d1d1"
   showgrid="false"
   inkscape:zoom="0.641875"
   inkscape:cx="379.35735"
   inkscape:cy="167.47809"
   inkscape:window-width="1720"
   inkscape:window-height="1399"
   inkscape:window-x="1720"
   inkscape:window-y="0"
   inkscape:window-maximized="1"
   inkscape:current-layer="Layer_1" />
<g
   id="g3009"
   transform="translate(0,94.72)">
	<g
   id="g3007">
		<path
   d="m 360.923,302.912 h -16.328 c -6.765,0 -12.249,5.485 -12.249,12.249 0,6.764 5.484,12.249 12.249,12.249 h 16.328 c 6.765,0 12.249,-5.485 12.249,-12.249 0,-6.764 -5.484,-12.249 -12.249,-12.249 z"
   id="path3005" />
	</g>
</g>
<g
   id="g3015"
   transform="translate(0,94.72)">
	<g
   id="g3013">
		<path
   d="M 499.751,302.912 H 475.18 v -27.817 c 0,-6.764 -5.484,-12.249 -12.249,-12.249 h -43.896 l -40.27,-31.461 54.183,-54.191 c 6.118,4.329 13.306,6.502 20.497,6.502 9.096,0 18.193,-3.461 25.117,-10.386 l 11.085,-11.085 c 2.297,-2.297 3.588,-5.413 3.588,-8.661 0,-3.248 -1.291,-6.363 -3.588,-8.661 l -41.732,-41.732 c -2.297,-2.297 -5.413,-3.588 -8.661,-3.588 -0.001,0 -0.002,0 -0.004,0 -3.25,0.001 -6.366,1.293 -8.662,3.593 l -11.069,11.08 c -12.402,12.402 -13.689,31.764 -3.889,45.612 l -56.315,56.323 -9.015,-7.043 C 294.779,165.766 217.223,165.766 161.701,209.147 l -68.749,53.7 H 49.056 c -6.765,0 -12.249,5.485 -12.249,12.249 v 27.817 H 12.249 C 5.484,302.912 0,308.397 0,315.161 c 0,6.764 5.484,12.249 12.249,12.249 h 24.559 v 72.758 c 0,6.764 5.484,12.249 12.249,12.249 h 413.875 c 6.765,0 12.249,-5.485 12.249,-12.249 V 327.41 h 24.571 c 6.765,0 12.249,-5.485 12.249,-12.249 0,-6.764 -5.485,-12.249 -12.25,-12.249 z m -62.904,-171.34 2.412,-2.415 24.405,24.406 -2.424,2.424 c -4.298,4.298 -11.291,4.299 -15.59,0 l -8.806,-8.819 c -4.3,-4.299 -4.3,-11.293 0.003,-15.596 z m -260.064,96.88 c 46.642,-36.441 111.792,-36.444 158.435,0 l 44.025,34.395 H 132.749 Z M 61.305,387.919 V 327.41 h 244.498 c 6.765,0 12.249,-5.485 12.249,-12.249 0,-6.764 -5.484,-12.249 -12.249,-12.249 H 61.305 v -15.568 h 35.865 317.648 35.865 v 15.568 H 403.39 c -6.765,0 -12.249,5.485 -12.249,12.249 0,6.764 5.484,12.249 12.249,12.249 h 47.293 v 60.509 H 61.305 Z"
   id="path3011" />
	</g>
</g>
<path
   d="m 138.54074,11.650841 c -42.174566,8.68082 -27.58173,45.71531 -27.58173,45.71531 -9.915,13.880999 -9.32795,33.33658 -0.22187,47.633599 7.77484,12.20307 -0.0508,32.61086 22.45089,55.77822 3.54536,3.64705 -9.56833,23.82373 16.61744,43.21923 5.70864,4.22947 14.64832,11.23237 12.3926,21.72517 -2.81041,13.06746 23.05179,25.09951 27.61408,39.52595 9.54983,30.23035 46.80619,21.09653 63.87201,-5.01066 0,0 -6.04607,1.8166 -8.08916,-2.25572 18.76685,-9.42965 21.84073,-33.78958 -2.65787,-36.11463 21.96091,-19.02571 11.81942,-44.12059 44.56434,-49.69518 26.55093,-4.52069 31.17793,-15.85476 31.17793,-15.85476 36.0453,0.18028 86.95616,-24.13805 44.39331,-77.11973 70.65304,22.08571 -79.89316,-97.314909 -224.53197,-67.546799 M 121.65519,72.36576 c 5.91202,6.18936 12.6607,11.5051 19.622,16.460291 -5.35272,1.39596 -10.55289,3.37896 -15.07358,6.66085 -3.45754,-6.64236 -7.28949,-15.642131 -4.54842,-23.121141 m 14.25079,61.57931 c 10.12301,11.38954 22.42778,13.81628 22.42778,13.81628 -8.86572,4.29882 -20.56496,6.3003 -22.42778,-13.81628 m 28.1549,76.79155 c 0,0 6.49444,0.15254 6.62849,1.83046 0.94297,12.4342 -6.62849,-1.83046 -6.62849,-1.83046 m 10.40035,-2.63013 c -20.44015,-6.08767 -11.08446,-10.05367 16.99648,-3.6563 33.08236,7.53447 52.5703,-1.2388 43.69071,5.14933 -3.84119,2.76418 -23.69893,9.53596 -60.68719,-1.49303 m 28.61714,19.21522 c 5.81957,-8.68082 55.28825,-14.87481 19.7468,-1.70103 -4.63625,1.7149 -21.86847,4.86274 -19.7468,1.70103 m -14.02892,-8.0984 c 7.16007,-7.30798 22.37693,-0.79967 22.37693,-0.79967 0,0 -12.06902,3.36046 -22.37693,0.79967 m 6.22635,23.66195 c -0.005,0.009 0,0.0139 -0.009,0.0185 l -0.009,0.009 c -3.6979,5.56997 -13.11369,-4.99217 -12.95653,-9.50823 0.33281,-9.47125 27.39683,-1.67792 27.39683,-1.67792 0,0 -11.03361,6.04607 -14.42181,11.15842 m 11.93497,-1.50228 c 5.86118,-7.55296 51.32688,-10.13687 18.10123,-0.33281 -4.33116,1.27578 -20.23676,3.07851 -18.10123,0.33281 m 0.7211,23.38461 c 7.6223,0.11556 15.26771,-0.46224 22.7652,-1.90904 -4.64549,5.4128 -13.20151,12.77625 -22.7652,1.90904 M 226.0151,254.5704 c -4.01685,0.7026 -18.45253,0.70722 -16.25228,-1.53001 6.05069,-6.17087 47.03731,-3.8828 16.25228,1.53001 m -6.68858,-8.99977 c 12.28627,-5.76411 20.45402,-5.3712 20.45402,-5.3712 0,0 -9.26325,7.40042 -20.45402,5.3712 m 30.42911,-57.40068 c -2.77343,3.5546 -20.44016,13.10906 -50.20364,5.27413 -57.51162,6.98441 -53.84608,-22.44626 -46.68139,-18.36471 11.72697,6.68858 24.36917,11.74084 37.36267,15.42025 a 142.0965,142.0965 0 0 1 -22.8253,-10.64071 c -23.3014,-13.3864 -11.0521,-13.59441 22.85304,-0.27734 39.96045,15.69759 67.49133,-1.7149 59.49462,8.58838 m 6.56377,-20.78683 c -2.77805,1.69641 -12.31863,4.03995 -26.68961,2.99067 6.10617,2.12168 12.61909,4.17863 19.71907,5.86118 -13.50659,3.55923 -59.79508,2.42675 -81.55723,-14.43569 a 37.334941,37.334941 0 0 1 15.89173,-3.96137 c -12.40646,-5.69477 -25.89455,-13.70997 -40.11761,-24.8915 -28.09481,-22.09958 -10.81636,-18.58658 32.18562,6.67009 50.67974,29.76348 95.35964,18.67903 80.56803,27.76662 m 10.88108,-12.24468 c -27.68804,2.92597 -44.71688,-5.58383 -44.71688,-5.58383 0,0 32.70332,2.47297 26.8329,-3.21717 -19.72831,-19.14127 -86.16574,7.79795 -113.34069,-37.10845 12.42033,-11.18153 26.84677,-6.29567 39.14229,0.661 -22.57569,14.49578 1.77961,5.24178 14.88868,8.06605 3.27726,0.70723 7.03525,1.61321 11.04748,2.66711 -16.22917,-8.50979 -33.75722,-19.96867 -51.67356,-35.38892 -30.96992,-26.666489 -10.17847,-16.69603 39.64151,17.20449 58.7273,39.95583 118.20805,38.90193 96.02064,41.57828 -4.15089,0.49922 -16.76998,0.14792 -34.70481,-4.32654 7.8072,4.63162 13.9827,9.81331 16.86244,15.44798 m 16.61282,-3.29575 c 2.81041,2.36203 14.80548,0.28659 14.80548,0.28659 -6.94744,4.14627 -18.06425,11.87026 -14.80548,-0.28659 M 158.92591,78.34689 c 81.97786,6.9197 133.47577,29.23191 143.87612,58.30204 -62.04617,-5.18631 -37.60766,-34.94054 -143.87612,-58.30204 m 193.9642,56.0833 c -0.94759,-26.5648 -44.06513,-67.61613 -23.0934,-23.08878 8.95355,19.0026 -1.70103,34.14088 -11.10295,19.34928 C 273.29739,59.270341 178.43697,86.694901 137.36252,62.062251 178.28905,42.075091 339.21249,98.99505 298.3553,80.33913 179.477,26.063181 125.35359,55.660261 125.35821,42.602041 c 0.009,-24.42926 80.87311,-38.2917703 189.14305,9.30947 -132.99041,-26.14416 -146.59869,-12.12912 -124.30959,-9.87802 162.73079,16.44642 190.42346,65.110809 162.69844,92.396699"
   fill="#000000"
   id="path420"
   style="stroke-width:4.62238" /></svg>
