<svg xmlns="http://www.w3.org/2000/svg" width="448" height="512" viewBox="0 0 448 512"><path fill="currentColor" d="M62.258 8.006a22.22 22.22 0 0 0-20.929 13.448c-3.404 8.169-.96 13.898 6.506 24.59c10.935 16.09 122.178 149.673 122.178 149.673l-24.619 23.038c-20.74 20.735-21.632 48.566-2.34 67.852l28.663 27.3l-79.976 98.235c-6.21 6.614-10.053 18.221-6.585 26.552a22.7 22.7 0 0 0 21.21 14.06a20.23 20.23 0 0 0 15.249-7.536l95.122-88.437L363.33 496.39a27.14 27.14 0 0 0 18.418 7.61a25.3 25.3 0 0 0 7.335-1.108a27.66 27.66 0 0 0 18.4-18.99a25.6 25.6 0 0 0-6.481-23.69L272.219 305.195l23.062-21.443c17.198-15.504 17.29-42.455.197-58.076l-25.257-24.228L357.417 98.46l.115-.133l.103-.14c7.793-10.123 11.52-17.92 7.502-27.806a36.17 36.17 0 0 0-23.647-18.37a24 24 0 0 0-3.166-.212l-.006.018a28.52 28.52 0 0 0-18.252 8.123l-.203.166l-.19.173L218.6 151.925L79.261 18.253S70.995 8.213 62.258 8.006m276.06 51.214q1.115.004 2.22.148a29.3 29.3 0 0 1 17.719 13.81c2.246 5.523 1.554 10.01-6.506 20.484L264.861 196.3l-40.882-39.22l100.68-91.304a21.77 21.77 0 0 1 13.66-6.536zM175.077 201.127L395.19 464.872c4.32 5.408 7.02 10.818 5.18 16.914a20.25 20.25 0 0 1-13.463 14.037a17.6 17.6 0 0 1-5.17.784a19.8 19.8 0 0 1-13.293-5.56l-220.15-209.694c-17.317-17.316-14.698-40.33 2.158-57.186z"/></svg>