<?xml version="1.0" encoding="UTF-8" standalone="no"?>
<!-- Uploaded to: SVG Repo, www.svgrepo.com, Generator: SVG Repo Mixer Tools -->

<svg
   fill="#000000"
   height="800px"
   width="800px"
   version="1.1"
   id="Layer_1"
   viewBox="0 0 512 512"
   xml:space="preserve"
   sodipodi:docname="privacy-sandstorm-logo-colorbis.svg"
   inkscape:version="1.2.2 (b0a8486541, 2022-12-01)"
   xmlns:inkscape="http://www.inkscape.org/namespaces/inkscape"
   xmlns:sodipodi="http://sodipodi.sourceforge.net/DTD/sodipodi-0.dtd"
   xmlns="http://www.w3.org/2000/svg"
   xmlns:svg="http://www.w3.org/2000/svg"><defs
   id="defs3020" /><sodipodi:namedview
   id="namedview3018"
   pagecolor="#ffffff"
   bordercolor="#666666"
   borderopacity="1.0"
   inkscape:showpageshadow="2"
   inkscape:pageopacity="0.0"
   inkscape:pagecheckerboard="0"
   inkscape:deskcolor="#d1d1d1"
   showgrid="false"
   inkscape:zoom="1.28375"
   inkscape:cx="239.53262"
   inkscape:cy="394.54723"
   inkscape:window-width="3440"
   inkscape:window-height="1399"
   inkscape:window-x="0"
   inkscape:window-y="0"
   inkscape:window-maximized="1"
   inkscape:current-layer="Layer_1" />


<path
   d="m 138.54074,11.650841 c -42.174566,8.68082 -27.58173,45.71531 -27.58173,45.71531 -9.915,13.880999 -9.32795,33.33658 -0.22187,47.633599 7.77484,12.20307 -0.0508,32.61086 22.45089,55.77822 3.54536,3.64705 -9.56833,23.82373 16.61744,43.21923 5.70864,4.22947 14.64832,11.23237 12.3926,21.72517 -2.81041,13.06746 23.05179,25.09951 27.61408,39.52595 9.54983,30.23035 46.80619,21.09653 63.87201,-5.01066 0,0 -6.04607,1.8166 -8.08916,-2.25572 18.76685,-9.42965 21.84073,-33.78958 -2.65787,-36.11463 21.96091,-19.02571 11.81942,-44.12059 44.56434,-49.69518 26.55093,-4.52069 31.17793,-15.85476 31.17793,-15.85476 36.0453,0.18028 86.95616,-24.13805 44.39331,-77.11973 70.65304,22.08571 -79.89316,-97.314909 -224.53197,-67.546799 M 121.65519,72.36576 c 5.91202,6.18936 12.6607,11.5051 19.622,16.460291 -5.35272,1.39596 -10.55289,3.37896 -15.07358,6.66085 -3.45754,-6.64236 -7.28949,-15.642131 -4.54842,-23.121141 m 14.25079,61.57931 c 10.12301,11.38954 22.42778,13.81628 22.42778,13.81628 -8.86572,4.29882 -20.56496,6.3003 -22.42778,-13.81628 m 28.1549,76.79155 c 0,0 6.49444,0.15254 6.62849,1.83046 0.94297,12.4342 -6.62849,-1.83046 -6.62849,-1.83046 m 10.40035,-2.63013 c -20.44015,-6.08767 -11.08446,-10.05367 16.99648,-3.6563 33.08236,7.53447 52.5703,-1.2388 43.69071,5.14933 -3.84119,2.76418 -23.69893,9.53596 -60.68719,-1.49303 m 28.61714,19.21522 c 5.81957,-8.68082 55.28825,-14.87481 19.7468,-1.70103 -4.63625,1.7149 -21.86847,4.86274 -19.7468,1.70103 m -14.02892,-8.0984 c 7.16007,-7.30798 22.37693,-0.79967 22.37693,-0.79967 0,0 -12.06902,3.36046 -22.37693,0.79967 m 6.22635,23.66195 c -0.005,0.009 0,0.0139 -0.009,0.0185 l -0.009,0.009 c -3.6979,5.56997 -13.11369,-4.99217 -12.95653,-9.50823 0.33281,-9.47125 27.39683,-1.67792 27.39683,-1.67792 0,0 -11.03361,6.04607 -14.42181,11.15842 m 11.93497,-1.50228 c 5.86118,-7.55296 51.32688,-10.13687 18.10123,-0.33281 -4.33116,1.27578 -20.23676,3.07851 -18.10123,0.33281 m 0.7211,23.38461 c 7.6223,0.11556 15.26771,-0.46224 22.7652,-1.90904 -4.64549,5.4128 -13.20151,12.77625 -22.7652,1.90904 M 226.0151,254.5704 c -4.01685,0.7026 -18.45253,0.70722 -16.25228,-1.53001 6.05069,-6.17087 47.03731,-3.8828 16.25228,1.53001 m -6.68858,-8.99977 c 12.28627,-5.76411 20.45402,-5.3712 20.45402,-5.3712 0,0 -9.26325,7.40042 -20.45402,5.3712 m 30.42911,-57.40068 c -2.77343,3.5546 -20.44016,13.10906 -50.20364,5.27413 -57.51162,6.98441 -53.84608,-22.44626 -46.68139,-18.36471 11.72697,6.68858 24.36917,11.74084 37.36267,15.42025 a 142.0965,142.0965 0 0 1 -22.8253,-10.64071 c -23.3014,-13.3864 -11.0521,-13.59441 22.85304,-0.27734 39.96045,15.69759 67.49133,-1.7149 59.49462,8.58838 m 6.56377,-20.78683 c -2.77805,1.69641 -12.31863,4.03995 -26.68961,2.99067 6.10617,2.12168 12.61909,4.17863 19.71907,5.86118 -13.50659,3.55923 -59.79508,2.42675 -81.55723,-14.43569 a 37.334941,37.334941 0 0 1 15.89173,-3.96137 c -12.40646,-5.69477 -25.89455,-13.70997 -40.11761,-24.8915 -28.09481,-22.09958 -10.81636,-18.58658 32.18562,6.67009 50.67974,29.76348 95.35964,18.67903 80.56803,27.76662 m 10.88108,-12.24468 c -27.68804,2.92597 -44.71688,-5.58383 -44.71688,-5.58383 0,0 32.70332,2.47297 26.8329,-3.21717 -19.72831,-19.14127 -86.16574,7.79795 -113.34069,-37.10845 12.42033,-11.18153 26.84677,-6.29567 39.14229,0.661 -22.57569,14.49578 1.77961,5.24178 14.88868,8.06605 3.27726,0.70723 7.03525,1.61321 11.04748,2.66711 -16.22917,-8.50979 -33.75722,-19.96867 -51.67356,-35.38892 -30.96992,-26.666489 -10.17847,-16.69603 39.64151,17.20449 58.7273,39.95583 118.20805,38.90193 96.02064,41.57828 -4.15089,0.49922 -16.76998,0.14792 -34.70481,-4.32654 7.8072,4.63162 13.9827,9.81331 16.86244,15.44798 m 16.61282,-3.29575 c 2.81041,2.36203 14.80548,0.28659 14.80548,0.28659 -6.94744,4.14627 -18.06425,11.87026 -14.80548,-0.28659 M 158.92591,78.34689 c 81.97786,6.9197 133.47577,29.23191 143.87612,58.30204 -62.04617,-5.18631 -37.60766,-34.94054 -143.87612,-58.30204 m 193.9642,56.0833 c -0.94759,-26.5648 -44.06513,-67.61613 -23.0934,-23.08878 8.95355,19.0026 -1.70103,34.14088 -11.10295,19.34928 C 273.29739,59.270341 178.43697,86.694901 137.36252,62.062251 178.28905,42.075091 339.21249,98.99505 298.3553,80.33913 179.477,26.063181 125.35359,55.660261 125.35821,42.602041 c 0.009,-24.42926 80.87311,-38.2917703 189.14305,9.30947 -132.99041,-26.14416 -146.59869,-12.12912 -124.30959,-9.87802 162.73079,16.44642 190.42346,65.110809 162.69844,92.396699"
   fill="#000000"
   id="path420"
   style="stroke-width:4.62238" /><polygon
   style="fill:#f0c419"
   points="462.931,315.161 462.931,400.168 49.056,400.168 49.056,315.161 49.056,275.095 97.17,275.095 414.818,275.095 462.931,275.095 "
   id="polygon135"
   transform="translate(0,94.719724)" /><path
   style="fill:#dbb67e"
   d="M 414.818,369.81472 H 97.17 l 72.072,-56.295 c 50.98,-39.833 122.537,-39.833 173.517,0 z"
   id="path137" /><path
   d="m 360.923,397.63172 h -16.328 c -6.765,0 -12.249,5.485 -12.249,12.249 0,6.764 5.484,12.249 12.249,12.249 h 16.328 c 6.765,0 12.249,-5.485 12.249,-12.249 0,-6.764 -5.484,-12.249 -12.249,-12.249 z"
   id="path139" /><path
   d="M 499.751,397.63172 H 475.18 v -27.817 c 0,-6.764 -5.484,-12.249 -12.249,-12.249 h -43.896 l -40.27,-31.461 54.183,-54.191 c 6.118,4.329 13.306,6.502 20.497,6.502 9.096,0 18.193,-3.462 25.117,-10.386 l 11.085,-11.085 c 2.297,-2.297 3.588,-5.413 3.588,-8.661 0,-3.248 -1.291,-6.363 -3.588,-8.661 l -41.732,-41.732 c -2.297,-2.297 -5.413,-3.588 -8.661,-3.588 -0.001,0 -0.002,0 -0.004,0 -3.25,0.001 -6.366,1.293 -8.662,3.593 l -11.069,11.08 c -12.402,12.402 -13.689,31.764 -3.889,45.612 l -56.315,56.322 -9.015,-7.043 c -55.521,-43.382 -133.077,-43.382 -188.599,-10e-4 l -68.749,53.7 H 49.056 c -6.765,0 -12.249,5.485 -12.249,12.249 v 27.817 H 12.249 c -6.765,0 -12.249,5.485 -12.249,12.249 0,6.764 5.484,12.249 12.249,12.249 h 24.559 v 72.758 c 0,6.764 5.484,12.249 12.249,12.249 h 413.875 c 6.765,0 12.249,-5.485 12.249,-12.249 v -72.758 h 24.571 c 6.765,0 12.249,-5.485 12.249,-12.249 0,-6.764 -5.485,-12.249 -12.25,-12.249 z m -62.904,-171.34 2.412,-2.415 24.405,24.406 -2.424,2.424 c -4.298,4.298 -11.291,4.299 -15.59,0 l -8.806,-8.819 c -4.3,-4.299 -4.3,-11.293 0.003,-15.596 z m -260.064,96.88 c 46.642,-36.441 111.792,-36.444 158.435,0 l 44.025,34.395 H 132.749 Z m 273.899,159.467 H 61.305 v -60.509 h 244.498 c 6.765,0 12.249,-5.485 12.249,-12.249 0,-6.764 -5.484,-12.249 -12.249,-12.249 H 61.305 v -15.568 h 35.865 317.648 35.865 v 15.568 H 403.39 c -6.765,0 -12.249,5.485 -12.249,12.249 0,6.764 5.484,12.249 12.249,12.249 h 47.293 z"
   id="path141" /><path
   style="fill:#dbb67e;fill-opacity:1;stroke:#dbb67e;stroke-width:0.000194742;stroke-dasharray:none;stroke-opacity:1"
   d="m 339.28919,422.32766 c -1.5084,-0.16153 -3.61737,-0.7471 -5.10816,-1.41829 -2.6825,-1.20774 -5.14406,-3.01889 -7.79349,-5.73426 l -1.3632,-1.39711 5.11198,-0.0618 c 6.23385,-0.0753 9.86467,-0.26708 15.48199,-0.81761 4.72085,-0.46267 10.64153,-1.30666 14.4109,-2.05427 l 0.3408,-0.0676 -0.42924,0.47823 c -6.08398,6.7784 -11.46932,10.25784 -17.02015,10.99666 -0.96059,0.12785 -2.78991,0.16615 -3.63143,0.076 z"
   id="path1745"
   transform="scale(0.64)" /><path
   style="fill:#dbb67e;fill-opacity:1;stroke:#dbb67e;stroke-width:0.000194742;stroke-dasharray:none;stroke-opacity:1"
   d="m 336.61149,398.24325 c -3.2623,-0.1779 -6.07182,-0.55676 -7.49954,-1.01131 -0.90069,-0.28676 -1.33369,-0.53046 -1.56225,-0.87928 -0.23554,-0.35949 -0.0521,-0.7254 0.66338,-1.32324 3.13056,-2.61584 10.38669,-4.3906 21.15401,-5.17401 2.7925,-0.20318 11.38397,-0.17223 13.77799,0.0496 4.2235,0.39141 6.83405,1.04569 7.48768,1.87665 0.30229,0.38431 0.25354,0.60989 -0.23241,1.07551 -1.39845,1.33996 -6.68843,2.90554 -15.07717,4.46213 -2.91001,0.53997 -3.3138,0.59695 -5.58921,0.78863 -2.1497,0.18109 -10.67149,0.26894 -13.12248,0.13529 z"
   id="path1747"
   transform="scale(0.64)" /><path
   style="fill:#dbb67e;fill-opacity:1;stroke:#dbb67e;stroke-width:0.000194742;stroke-dasharray:none;stroke-opacity:1"
   d="m 346.39727,384.12017 c -0.56231,-0.0429 -1.58775,-0.15278 -2.27873,-0.24417 l -1.25635,-0.16616 0.36162,-0.18552 c 0.19888,-0.10203 1.10938,-0.51418 2.02332,-0.91589 6.67496,-2.93385 13.47791,-5.09271 19.74617,-6.26627 3.1494,-0.58964 7.15192,-1.02769 8.76522,-0.95929 l 0.73028,0.031 -1.31451,0.8854 c -8.31815,5.60279 -18.16284,8.47819 -26.77702,7.82094 z"
   id="path1749"
   transform="scale(0.64)" /><path
   style="fill:#dbb67e;fill-opacity:1;stroke:#dbb67e;stroke-width:0.000194742;stroke-dasharray:none;stroke-opacity:1"
   d="m 326.82571,379.24533 c -1.0744,-0.0994 -2.32892,-0.39275 -2.76265,-0.64605 -0.39259,-0.22929 -0.59608,-0.5949 -0.51373,-0.923 0.0353,-0.14064 0.245,-0.46623 0.46601,-0.72354 2.24268,-2.61101 7.83742,-5.1062 15.8902,-7.08683 13.09507,-3.22083 29.03811,-4.19624 30.76572,-1.88229 0.2561,0.34301 0.16777,0.65724 -0.33943,1.20748 -1.55102,1.68266 -6.84997,3.90278 -16.02208,6.71284 -2.91561,0.89325 -3.78139,1.11364 -6.06243,1.54318 -7.5199,1.4161 -16.97312,2.20963 -21.42161,1.79821 z"
   id="path1751"
   transform="scale(0.64)" /><path
   style="fill:#dbb67e;fill-opacity:1;stroke:#dbb67e;stroke-width:0.000194742;stroke-dasharray:none;stroke-opacity:1"
   d="m 299.46446,381.83819 c -4.37869,-0.89853 -10.36706,-6.46269 -13.18226,-12.24845 -0.75515,-1.55197 -1.09129,-2.53277 -1.2991,-3.79059 -0.14331,-0.86749 -0.14357,-1.02913 -0.003,-1.88923 0.44883,-2.74642 2.40982,-4.57717 6.01888,-5.61913 2.01961,-0.58307 4.44172,-0.84175 7.88126,-0.84173 5.18569,5e-5 10.91818,0.67826 18.19979,2.1532 3.09071,0.62605 8.94244,2.01094 10.36608,2.45326 0.0467,0.0145 -0.63239,0.43956 -1.50903,0.94457 -0.87663,0.50501 -2.6675,1.59128 -3.97969,2.41392 -8.13606,5.10067 -13.92083,9.89021 -16.72303,13.84597 -1.62103,2.28835 -3.37127,3.07042 -5.76989,2.57821 z"
   id="path1753"
   transform="scale(0.64)" /><path
   style="fill:#dbb67e;fill-opacity:1;stroke:#dbb67e;stroke-width:0.000194742;stroke-dasharray:none;stroke-opacity:1"
   d="m 319.34692,357.15692 c -1.47672,-0.20905 -2.25831,-0.63884 -2.25831,-1.24179 0,-0.88392 2.0884,-2.91001 4.60366,-4.4663 6.8892,-4.26262 21.30671,-8.56875 34.16268,-10.20348 3.05837,-0.3889 4.47605,-0.48938 6.94934,-0.49258 2.44628,-0.003 3.32861,0.0897 4.30644,0.45307 2.04318,0.75933 0.62511,2.4724 -4.16039,5.02589 -3.83664,2.0472 -13.42069,5.93789 -17.45494,7.08592 -5.49476,1.56364 -13.97349,3.13993 -20.13026,3.74243 -1.42615,0.13956 -5.27858,0.20155 -6.01822,0.0968 z"
   id="path1755"
   transform="scale(0.64)" /><path
   style="fill:#dbb67e;fill-opacity:1;stroke:#dbb67e;stroke-width:0.000194742;stroke-dasharray:none;stroke-opacity:1"
   d="m 305.46854,343.91342 c -0.84819,-0.0462 -2.25033,-0.1559 -3.11587,-0.24373 -2.5129,-0.25499 -6.93606,-1.04714 -6.82753,-1.22275 0.0266,-0.0431 0.45285,-0.41778 0.94714,-0.83261 2.74812,-2.30639 5.91154,-3.60419 10.34369,-4.24352 1.36589,-0.19703 6.65333,-0.16599 8.3739,0.0491 4.50078,0.56279 8.83713,1.60475 13.17226,3.16511 1.23771,0.44549 1.73524,0.6656 1.63338,0.7226 -0.44477,0.24891 -5.47848,1.24943 -8.67314,1.72392 -5.22159,0.77553 -11.44864,1.1219 -15.85383,0.88183 z"
   id="path1757"
   transform="scale(0.64)" /><path
   style="fill:#dbb67e;fill-opacity:1;stroke:#dbb67e;stroke-width:0.000194742;stroke-dasharray:none;stroke-opacity:1"
   d="m 327.36125,334.60604 c -14.37087,-0.4825 -27.6611,-2.43336 -43.37878,-6.36752 -10.75473,-2.69193 -19.00718,-5.35823 -23.8072,-7.69191 -3.12335,-1.51851 -4.72249,-2.8494 -4.72249,-3.93031 0,-0.32109 0.0631,-0.44554 0.37776,-0.74486 2.2884,-2.1769 13.39999,-1.91283 28.5901,0.67945 4.73303,0.80772 7.94209,1.44793 14.16748,2.82644 15.67879,3.47179 27.78023,4.92392 43.42746,5.21115 5.13564,0.0943 10.83947,-0.0909 19.69179,-0.63937 7.78385,-0.48224 9.33718,-0.38189 8.93977,0.57754 -0.35208,0.84999 -3.23022,3.08292 -5.32983,4.13502 -6.11372,3.06354 -16.12724,5.17113 -27.58605,5.80616 -1.87914,0.10414 -8.6836,0.19483 -10.37001,0.13821 z"
   id="path1759"
   transform="scale(0.64)" /><path
   style="fill:#dbb67e;fill-opacity:1;stroke:#dbb67e;stroke-width:0.000194742;stroke-dasharray:none;stroke-opacity:1"
   d="m 264.16748,339.75906 c -1.60038,-0.82623 -4.73183,-4.97798 -7.39251,-9.80117 l -0.367,-0.66529 0.90994,0.0629 c 4.9726,0.34344 7.98457,1.04413 8.98731,2.09077 0.38059,0.39724 0.47153,1.26524 0.41366,3.94813 -0.0521,2.41551 -0.16703,3.15802 -0.60423,3.90405 -0.44991,0.76771 -1.06881,0.91413 -1.94717,0.46066 z"
   id="path1761"
   transform="scale(0.64)" /><path
   style="fill:#dbb67e;fill-opacity:1;stroke:#dbb67e;stroke-width:0.000550814;stroke-dasharray:none;stroke-opacity:1"
   d="m 339.02569,306.63908 c -8.33874,-0.62754 -15.58601,-1.74006 -23.18583,-3.55922 l -3.90736,-0.93531 -5.18107,0.52511 c -14.77349,1.49734 -28.34025,1.44197 -39.4692,-0.16109 -13.82548,-1.99147 -25.09491,-7.1392 -30.50016,-13.93207 -4.20513,-5.28466 -5.18048,-11.42895 -2.2754,-14.33404 1.60561,-1.60561 2.5421,-1.48904 6.84999,0.85259 6.61159,3.59386 9.28087,4.96106 13.80468,7.07071 12.02137,5.60609 23.97108,10.17265 36.75106,14.04435 2.71621,0.82288 4.99573,1.43899 5.06559,1.36914 0.0699,-0.0699 -0.10761,-0.2076 -0.39437,-0.30609 -0.28676,-0.0985 -2.87611,-1.10943 -5.75411,-2.24653 -17.98199,-7.10472 -39.50105,-19.10527 -46.06796,-25.69075 -2.1966,-2.20282 -2.28217,-3.3203 -0.29522,-3.85533 4.74796,-1.2785 22.60151,3.74661 49.03015,13.80015 15.67073,5.96119 24.07709,8.36028 36.10532,10.3041 15.62814,2.52557 29.99925,2.53015 50.7349,0.0162 3.02947,-0.36729 6.37609,-0.74986 7.43694,-0.85015 2.14532,-0.20281 4.19829,0.19997 4.45712,0.87447 0.30413,0.79253 -1.12565,3.24238 -2.95306,5.05992 -5.22853,5.20032 -17.44001,9.69009 -31.11125,11.43862 -3.27133,0.4184 -15.90772,0.75856 -19.14076,0.51526 z"
   id="path1763"
   transform="scale(0.64)" /><path
   style="fill:#dbb67e;fill-opacity:1;stroke:#dbb67e;stroke-width:0.000550814;stroke-dasharray:none;stroke-opacity:1"
   d="m 353.89765,277.72027 c -32.49789,-1.23424 -61.80285,-7.79259 -80.82054,-18.08734 -3.06893,-1.66128 -10.47679,-6.39655 -10.47679,-6.69698 0,-0.29257 4.602,-2.27405 7.54749,-3.24972 4.00629,-1.32706 8.91812,-2.33053 13.38231,-2.73395 l 3.66079,-0.33081 -6.99372,-3.46511 c -11.34851,-5.62274 -20.91582,-11.12635 -31.91802,-18.36088 -23.24779,-15.28665 -45.16671,-33.91114 -45.16671,-38.37813 0,-0.96321 0.65331,-1.34403 2.30577,-1.34403 7.34191,0 31.62909,11.52277 65.30659,30.98394 10.61139,6.132 13.4648,7.67612 20.85501,11.28569 16.7509,8.18157 33.53803,14.22182 52.00734,18.71297 13.47195,3.27596 24.2974,5.12872 41.84455,7.16163 13.75151,1.59317 16.43661,2.0269 18.2457,2.94729 1.7858,0.90854 1.19903,2.26595 -1.90172,4.39932 -6.47008,4.45154 -23.9468,6.8286 -41.13059,5.59431 -1.32985,-0.0955 -1.96745,-0.0537 -1.79014,0.11732 0.64105,0.61842 17.49928,5.83872 25.47512,7.8886 4.51378,1.16009 4.53684,1.16993 3.44259,1.46832 -1.69356,0.46182 -8.40006,1.36878 -12.45019,1.68371 -3.91343,0.3043 -17.36823,0.55792 -21.42484,0.40385 z"
   id="path1765"
   transform="scale(0.64)" /><path
   style="fill:#dbb67e;fill-opacity:1;stroke:#dbb67e;stroke-width:0.000550814;stroke-dasharray:none;stroke-opacity:1"
   d="m 228.24349,234.91095 c -6.96138,-1.25116 -11.84767,-6.93936 -14.22823,-16.56327 -0.38664,-1.56305 -0.83173,-3.77141 -0.98909,-4.90746 -0.15736,-1.13606 -0.34659,-2.42751 -0.4205,-2.86989 -0.11804,-0.70643 0.24304,-0.43733 2.96644,2.21082 3.88749,3.78008 6.54552,5.9407 10.78332,8.7654 5.57832,3.71822 13.53086,7.47303 18.74623,8.85107 l 1.91752,0.50666 -1.64211,0.75527 c -2.04228,0.93933 -6.02242,2.28761 -8.38958,2.84199 -2.2732,0.53238 -6.8639,0.74732 -8.744,0.40941 z"
   id="path1767"
   transform="scale(0.64)" /><path
   style="fill:#dbb67e;fill-opacity:1;stroke:#dbb67e;stroke-width:0.000550814;stroke-dasharray:none;stroke-opacity:1"
   d="m 390.38904,242.99544 c -6.35502,-0.3642 -15.46369,-1.5699 -21.61943,-2.86173 -6.43445,-1.35031 -15.49563,-4.06605 -19.14076,-5.7367 l -1.23934,-0.56801 1.51474,0.13589 c 3.17705,0.28501 14.67059,0.68154 19.68771,0.67923 11.60237,-0.005 19.82439,-1.20958 20.80807,-3.0476 0.61393,-1.14713 0.30795,-1.98343 -1.27248,-3.47794 -4.39518,-4.15626 -11.24197,-7.33844 -19.94483,-9.26974 -9.0378,-2.00563 -19.25363,-2.81572 -43.92737,-3.48333 -12.16271,-0.32909 -19.62297,-0.6734 -27.12756,-1.25199 -39.75869,-3.06536 -64.9341,-14.66479 -81.55892,-37.57781 -1.15399,-1.59047 -2.50761,-3.56198 -3.00804,-4.38113 l -0.90988,-1.48937 1.08315,-0.92447 c 1.94689,-1.66169 5.7152,-4.12654 8.24373,-5.39222 10.47157,-5.24169 23.06365,-5.07278 37.2247,0.49934 1.79305,0.70553 5.7103,2.52128 8.70501,4.03501 l 5.44493,2.75224 -4.2056,2.85946 c -6.45224,4.38698 -9.5972,7.12896 -9.99511,8.71435 -0.14722,0.58659 -0.0391,0.81071 0.58983,1.22249 0.97829,0.64052 5.18607,0.63578 12.22256,-0.0138 16.70025,-1.54162 20.16946,-1.29231 35.71154,2.5664 3.53413,0.87743 6.42164,1.51909 6.4167,1.4259 -0.005,-0.0932 -2.26672,-1.37915 -5.02617,-2.85768 -20.49292,-10.98024 -42.19355,-25.46295 -62.5753,-41.76192 -19.71385,-15.76486 -35.66707,-30.81991 -35.66707,-33.65902 0,-1.56625 5.32551,0.34879 13.57036,4.87988 14.03743,7.71449 37.09244,22.32555 64.92056,41.14327 19.78176,13.37667 30.37582,19.68728 47.09455,28.05305 16.81789,8.41538 32.27748,14.86107 50.26173,20.95605 17.07643,5.78731 30.39458,9.45079 53.1535,14.62117 9.63856,2.18969 12.80641,3.07508 12.80641,3.5793 0,0.54307 -4.16882,1.27199 -9.42196,1.64743 -10.332,0.73841 -31.74839,-1.92473 -48.54994,-6.03723 -1.81701,-0.44474 -3.35585,-0.75644 -3.41963,-0.69266 -0.14139,0.14139 -0.40561,-0.0424 2.7299,1.89927 10.25993,6.3536 18.09797,13.50048 22.24649,20.2848 l 1.1164,1.82571 -1.83566,0.17528 c -6.59773,0.62996 -18.84244,0.88786 -25.10752,0.52881 z"
   id="path1769"
   transform="scale(0.64)" /><path
   style="fill:#dbb67e;fill-opacity:1;stroke:#dbb67e;stroke-width:0.000550814;stroke-dasharray:none;stroke-opacity:1"
   d="m 471.35862,213.25239 c -20.06095,-2.07437 -32.42903,-4.77297 -44.8913,-9.79489 -3.93141,-1.58424 -10.34748,-4.73378 -13.94052,-6.84318 -3.54355,-2.08034 -11.34611,-7.39727 -16.90503,-11.51966 -15.03052,-11.14635 -21.17237,-15.43213 -28.91771,-20.17879 -23.10474,-14.15953 -51.32187,-25.44268 -88.40556,-35.35063 -8.75133,-2.33817 -25.72489,-6.45843 -26.60571,-6.45843 -0.26177,0 -0.40908,-0.0669 -0.32736,-0.14859 0.19673,-0.19673 12.87864,1.02435 23.21508,2.23526 53.25175,6.23843 97.2267,16.74204 131.64442,31.44387 6.23243,2.66224 17.80181,8.41756 22.85876,11.37136 19.25548,11.24727 32.32262,23.351 40.04979,37.097 1.76922,3.1473 3.98022,8.35091 3.52258,8.29043 -0.18343,-0.0242 -0.76728,-0.0889 -1.29744,-0.14375 z"
   id="path1771"
   transform="scale(0.64)" /><path
   style="fill:#dbb67e;fill-opacity:1;stroke:#dbb67e;stroke-width:0.000550814;stroke-dasharray:none;stroke-opacity:1"
   d="m 508.33845,213.18852 c -3.74689,-0.95677 -6.62736,-3.72019 -11.64527,-11.17205 -9.91462,-14.72371 -19.13694,-25.13491 -31.20263,-35.22508 -23.58001,-19.71925 -53.49431,-32.76343 -92.86524,-40.49406 -16.97261,-3.33263 -30.87393,-5.17595 -66.64843,-8.8376 -28.08824,-2.87493 -39.77297,-4.42571 -52.18958,-6.92653 -13.58894,-2.73695 -23.92075,-6.02654 -33.18651,-10.566392 -4.54438,-2.226568 -5.62455,-2.861319 -5.34497,-3.140904 0.0893,-0.08926 1.5143,-0.673135 3.16675,-1.297491 25.42513,-9.606553 76.4465,-5.778724 154.61585,11.599907 14.97352,3.32891 29.2129,6.76061 55.08134,13.27464 38.40015,9.66968 42.71013,10.70142 46.43914,11.11677 2.07084,0.23066 2.53721,-0.18119 1.3195,-1.16523 -2.41575,-1.95219 -24.74376,-11.9236 -43.35213,-19.36053 C 379.19321,89.679146 328.70946,76.994697 281.32798,73.004169 c -3.55964,-0.299797 -8.95072,-0.705429 -11.9802,-0.901403 -7.27235,-0.470445 -37.95536,-0.472857 -50.67484,-0.004 -14.49098,0.534174 -19.26217,-2.75e-4 -21.43105,-2.401051 -1.19909,-1.327248 -1.49061,-2.874169 -1.04739,-5.55795 1.67426,-10.138065 11.87268,-18.602893 29.50869,-24.492624 23.39026,-7.811426 57.82384,-9.922731 96.24728,-5.90143 42.76258,4.475424 89.81404,16.203123 136.60174,34.048335 12.66298,4.829772 31.3661,12.599362 30.37075,12.616526 -0.26114,0.0045 -4.28896,-0.729991 -8.95072,-1.632207 C 421.9292,67.544955 369.27331,59.921198 332.55363,57.434443 c -28.68951,-1.94293 -49.0224,-0.455428 -49.0224,3.58635 0,0.721411 1.2592,1.874148 2.71846,2.488633 2.15847,0.908913 6.79024,1.796979 12.84202,2.462249 16.09315,1.769113 21.81,2.429754 29.88163,3.453129 85.18068,10.799772 150.29593,28.5355 191.25543,52.093096 5.00326,2.87759 14.07235,8.9006 17.84639,11.85223 8.5898,6.71797 15.49689,13.9334 20.09813,20.99534 3.47208,5.32891 6.27451,12.2257 7.20979,17.74342 0.56216,3.31653 0.5718,9.37097 0.0201,12.5841 -0.90562,5.2735 -3.34126,11.2583 -6.57542,16.15685 -1.47577,2.23527 -5.24969,6.90641 -6.56209,8.12218 l -0.67664,0.62682 -0.33699,-2.83008 c -0.95324,-8.00596 -3.81295,-16.52753 -8.80564,-26.23965 -8.89024,-17.29395 -23.66564,-34.68261 -31.58766,-37.17439 -6.03551,-1.8984 -6.09252,5.64261 -0.15456,20.43847 0.62203,1.54987 2.2574,5.32983 3.63418,8.3999 2.91675,6.504 4.37123,10.67229 5.26316,15.08349 0.54302,2.6855 0.63749,3.96298 0.62113,8.3999 -0.0165,4.47608 -0.10595,5.55132 -0.61873,7.43598 -1.23288,4.5314 -3.41124,7.86949 -6.08511,9.3248 -1.52209,0.82842 -3.66252,1.13883 -5.18029,0.75126 z"
   id="path1773"
   transform="scale(0.64)" /><path
   style="fill:#dbb67e;fill-opacity:1;stroke:#dbb67e;stroke-width:0.000550814;stroke-dasharray:none;stroke-opacity:1"
   d="m 444.44296,246.9815 c -0.92866,-0.44817 -1.72664,-2.34724 -1.72664,-4.10913 0,-1.64537 0.47732,-4.66001 0.78942,-4.9858 0.10671,-0.1114 0.87127,0.074 1.699,0.41196 1.41588,0.57813 1.88813,0.61326 7.97704,0.59347 4.45689,-0.0145 7.37097,-0.15852 9.35908,-0.4626 1.58787,-0.24286 2.9234,-0.4052 2.96785,-0.36075 0.16271,0.16272 -7.60427,4.72684 -10.90292,6.4069 -5.08403,2.58939 -8.33093,3.39001 -10.16283,2.50595 z"
   id="path1775"
   transform="scale(0.64)" /><path
   style="fill:#dbb67e;fill-opacity:1;stroke:#dbb67e;stroke-width:0.000550814;stroke-dasharray:none;stroke-opacity:1"
   d="m 195.71438,145.99352 c -4.61453,-9.71769 -6.53297,-16.10875 -6.82869,-22.74901 -0.15987,-3.59001 0.22494,-7.10814 0.99225,-9.07153 l 0.31629,-0.80934 3.49849,3.44655 c 6.61116,6.51298 13.83909,12.5335 23.51449,19.58643 l 3.21618,2.34445 -2.65389,0.75314 c -7.27933,2.06578 -14.19906,5.20305 -19.91429,9.02879 l -0.71304,0.4773 z"
   id="path1777"
   transform="scale(0.64)" /></svg>
